<?xml version="1.0" encoding="UTF-8"?>
<svg xmlns="http://www.w3.org/2000/svg" version="1.1" width="256" height="256" viewBox="0 0 256 256"><rect x="0" y="0" width="256" height="256" fill="#ffffff"/><g transform="scale(8.828)"><g transform="translate(0,0)"><path fill-rule="evenodd" d="M8 0L8 1L9 1L9 2L8 2L8 5L9 5L9 4L11 4L11 5L10 5L10 10L8 10L8 12L6 12L6 11L7 11L7 10L6 10L6 9L7 9L7 8L6 8L6 9L4 9L4 8L0 8L0 9L2 9L2 10L3 10L3 9L4 9L4 11L5 11L5 12L6 12L6 13L5 13L5 14L4 14L4 15L2 15L2 14L1 14L1 13L2 13L2 12L3 12L3 13L4 13L4 12L3 12L3 11L2 11L2 12L1 12L1 11L0 11L0 12L1 12L1 13L0 13L0 17L1 17L1 18L0 18L0 19L1 19L1 18L3 18L3 17L4 17L4 18L5 18L5 16L6 16L6 17L7 17L7 18L6 18L6 19L8 19L8 20L9 20L9 18L10 18L10 20L12 20L12 19L11 19L11 18L10 18L10 16L12 16L12 17L13 17L13 19L14 19L14 21L13 21L13 22L15 22L15 20L17 20L17 22L16 22L16 24L15 24L15 23L11 23L11 22L10 22L10 21L8 21L8 22L10 22L10 23L9 23L9 24L10 24L10 25L11 25L11 26L9 26L9 25L8 25L8 29L9 29L9 27L10 27L10 28L11 28L11 29L12 29L12 28L14 28L14 27L15 27L15 29L16 29L16 28L17 28L17 27L15 27L15 26L16 26L16 25L17 25L17 26L22 26L22 25L23 25L23 27L22 27L22 29L24 29L24 28L23 28L23 27L24 27L24 26L25 26L25 27L26 27L26 25L28 25L28 27L27 27L27 29L28 29L28 27L29 27L29 24L26 24L26 23L28 23L28 22L29 22L29 21L28 21L28 22L25 22L25 19L24 19L24 17L25 17L25 18L26 18L26 21L27 21L27 20L29 20L29 19L28 19L28 18L27 18L27 17L26 17L26 16L25 16L25 15L27 15L27 16L29 16L29 11L28 11L28 10L29 10L29 8L28 8L28 9L27 9L27 8L24 8L24 9L22 9L22 8L21 8L21 6L20 6L20 5L21 5L21 4L19 4L19 3L17 3L17 1L18 1L18 0L17 0L17 1L16 1L16 2L15 2L15 0L14 0L14 1L13 1L13 0L12 0L12 1L11 1L11 0L10 0L10 1L9 1L9 0ZM19 0L19 1L20 1L20 2L21 2L21 1L20 1L20 0ZM11 2L11 4L12 4L12 3L13 3L13 2ZM14 2L14 4L13 4L13 5L12 5L12 6L11 6L11 8L12 8L12 6L13 6L13 10L14 10L14 13L13 13L13 14L12 14L12 16L15 16L15 17L14 17L14 19L15 19L15 17L16 17L16 14L17 14L17 13L20 13L20 16L19 16L19 17L17 17L17 19L18 19L18 21L19 21L19 22L20 22L20 20L21 20L21 19L22 19L22 18L21 18L21 19L20 19L20 16L21 16L21 15L22 15L22 14L21 14L21 13L23 13L23 16L22 16L22 17L24 17L24 14L26 14L26 12L27 12L27 11L26 11L26 10L27 10L27 9L26 9L26 10L24 10L24 12L18 12L18 10L17 10L17 9L18 9L18 8L19 8L19 7L20 7L20 6L19 6L19 4L18 4L18 6L17 6L17 4L16 4L16 5L15 5L15 2ZM14 5L14 7L15 7L15 5ZM8 6L8 7L9 7L9 6ZM16 6L16 7L17 7L17 8L18 8L18 7L19 7L19 6L18 6L18 7L17 7L17 6ZM8 8L8 9L9 9L9 8ZM15 8L15 9L14 9L14 10L15 10L15 9L16 9L16 8ZM11 9L11 10L12 10L12 9ZM16 10L16 11L15 11L15 14L13 14L13 15L15 15L15 14L16 14L16 13L17 13L17 10ZM19 10L19 11L21 11L21 10ZM22 10L22 11L23 11L23 10ZM11 11L11 13L10 13L10 14L9 14L9 13L8 13L8 15L6 15L6 16L7 16L7 17L8 17L8 15L10 15L10 14L11 14L11 13L12 13L12 12L13 12L13 11ZM25 11L25 12L26 12L26 11ZM6 13L6 14L7 14L7 13ZM27 13L27 14L28 14L28 13ZM18 14L18 15L17 15L17 16L18 16L18 15L19 15L19 14ZM2 16L2 17L3 17L3 16ZM4 19L4 20L1 20L1 21L7 21L7 20L5 20L5 19ZM23 19L23 20L24 20L24 19ZM21 21L21 24L24 24L24 21ZM22 22L22 23L23 23L23 22ZM10 23L10 24L11 24L11 23ZM17 23L17 24L18 24L18 23ZM19 23L19 25L20 25L20 23ZM12 24L12 26L11 26L11 28L12 28L12 26L13 26L13 27L14 27L14 26L13 26L13 25L15 25L15 24ZM25 24L25 25L26 25L26 24ZM19 27L19 29L21 29L21 27ZM0 0L0 7L7 7L7 0ZM1 1L1 6L6 6L6 1ZM2 2L2 5L5 5L5 2ZM22 0L22 7L29 7L29 0ZM23 1L23 6L28 6L28 1ZM24 2L24 5L27 5L27 2ZM0 22L0 29L7 29L7 22ZM1 23L1 28L6 28L6 23ZM2 24L2 27L5 27L5 24Z" fill="#000000"/></g></g></svg>
