<?xml version="1.0" encoding="UTF-8"?>
<svg xmlns="http://www.w3.org/2000/svg" version="1.1" width="256" height="256" viewBox="0 0 256 256"><rect x="0" y="0" width="256" height="256" fill="#ffffff"/><g transform="scale(8.828)"><g transform="translate(0,0)"><path fill-rule="evenodd" d="M9 0L9 1L8 1L8 2L9 2L9 3L8 3L8 4L10 4L10 7L11 7L11 4L12 4L12 5L13 5L13 4L14 4L14 5L15 5L15 6L14 6L14 8L13 8L13 6L12 6L12 9L13 9L13 10L11 10L11 11L10 11L10 9L11 9L11 8L6 8L6 9L7 9L7 10L6 10L6 11L3 11L3 9L4 9L4 10L5 10L5 8L0 8L0 9L1 9L1 10L2 10L2 11L0 11L0 13L1 13L1 14L0 14L0 16L1 16L1 15L2 15L2 14L3 14L3 12L6 12L6 13L4 13L4 16L2 16L2 17L0 17L0 21L1 21L1 18L4 18L4 19L2 19L2 20L3 20L3 21L4 21L4 20L5 20L5 19L8 19L8 20L10 20L10 22L9 22L9 21L8 21L8 23L9 23L9 24L8 24L8 29L13 29L13 28L12 28L12 27L13 27L13 26L14 26L14 28L15 28L15 29L20 29L20 28L21 28L21 25L25 25L25 26L24 26L24 28L23 28L23 27L22 27L22 29L24 29L24 28L25 28L25 26L26 26L26 27L27 27L27 28L26 28L26 29L27 29L27 28L28 28L28 26L29 26L29 23L28 23L28 24L25 24L25 23L27 23L27 22L25 22L25 21L28 21L28 22L29 22L29 19L28 19L28 18L29 18L29 17L28 17L28 16L29 16L29 15L27 15L27 14L29 14L29 12L26 12L26 13L27 13L27 14L26 14L26 15L27 15L27 16L25 16L25 17L22 17L22 18L21 18L21 17L20 17L20 16L21 16L21 14L23 14L23 16L24 16L24 14L25 14L25 13L24 13L24 12L25 12L25 11L24 11L24 12L23 12L23 13L17 13L17 12L16 12L16 10L15 10L15 9L18 9L18 10L17 10L17 11L18 11L18 12L20 12L20 11L19 11L19 10L26 10L26 8L25 8L25 9L24 9L24 8L23 8L23 9L22 9L22 8L21 8L21 3L20 3L20 2L19 2L19 1L20 1L20 0L18 0L18 1L15 1L15 0L13 0L13 1L11 1L11 2L10 2L10 0ZM13 1L13 2L12 2L12 4L13 4L13 3L14 3L14 4L15 4L15 5L16 5L16 6L15 6L15 8L14 8L14 9L15 9L15 8L18 8L18 6L17 6L17 4L15 4L15 1ZM16 2L16 3L18 3L18 2ZM10 3L10 4L11 4L11 3ZM19 3L19 4L18 4L18 5L19 5L19 9L21 9L21 8L20 8L20 5L19 5L19 4L20 4L20 3ZM8 5L8 7L9 7L9 5ZM16 6L16 7L17 7L17 6ZM27 8L27 10L29 10L29 9L28 9L28 8ZM8 9L8 10L7 10L7 11L6 11L6 12L7 12L7 13L6 13L6 14L7 14L7 15L6 15L6 16L7 16L7 17L6 17L6 18L8 18L8 17L10 17L10 18L13 18L13 19L12 19L12 21L11 21L11 24L10 24L10 25L9 25L9 27L11 27L11 26L13 26L13 25L12 25L12 23L13 23L13 24L16 24L16 23L15 23L15 22L17 22L17 24L18 24L18 23L19 23L19 22L18 22L18 21L20 21L20 18L19 18L19 16L20 16L20 14L18 14L18 15L17 15L17 13L15 13L15 10L13 10L13 11L12 11L12 13L11 13L11 12L10 12L10 13L9 13L9 12L8 12L8 11L9 11L9 9ZM2 11L2 12L3 12L3 11ZM21 11L21 12L22 12L22 11ZM13 12L13 13L12 13L12 14L14 14L14 16L13 16L13 15L12 15L12 17L14 17L14 19L16 19L16 20L15 20L15 21L17 21L17 19L18 19L18 20L19 20L19 18L17 18L17 19L16 19L16 18L15 18L15 17L17 17L17 15L16 15L16 14L14 14L14 12ZM8 13L8 14L9 14L9 13ZM10 13L10 14L11 14L11 13ZM7 15L7 16L8 16L8 15ZM9 15L9 16L10 16L10 15ZM14 16L14 17L15 17L15 16ZM4 17L4 18L5 18L5 17ZM25 17L25 18L22 18L22 19L23 19L23 20L24 20L24 19L25 19L25 20L28 20L28 19L26 19L26 17ZM10 19L10 20L11 20L11 19ZM6 20L6 21L7 21L7 20ZM13 20L13 21L12 21L12 22L13 22L13 23L14 23L14 22L13 22L13 21L14 21L14 20ZM21 21L21 24L24 24L24 21ZM22 22L22 23L23 23L23 22ZM19 24L19 26L17 26L17 25L15 25L15 26L17 26L17 27L16 27L16 28L20 28L20 27L19 27L19 26L20 26L20 24ZM10 25L10 26L11 26L11 25ZM26 25L26 26L27 26L27 25ZM0 0L0 7L7 7L7 0ZM1 1L1 6L6 6L6 1ZM2 2L2 5L5 5L5 2ZM22 0L22 7L29 7L29 0ZM23 1L23 6L28 6L28 1ZM24 2L24 5L27 5L27 2ZM0 22L0 29L7 29L7 22ZM1 23L1 28L6 28L6 23ZM2 24L2 27L5 27L5 24Z" fill="#000000"/></g></g></svg>
