<?xml version="1.0" encoding="UTF-8"?>
<svg xmlns="http://www.w3.org/2000/svg" version="1.1" width="256" height="256" viewBox="0 0 256 256"><rect x="0" y="0" width="256" height="256" fill="#ffffff"/><g transform="scale(8.828)"><g transform="translate(0,0)"><path fill-rule="evenodd" d="M9 0L9 1L8 1L8 2L9 2L9 3L8 3L8 4L10 4L10 7L11 7L11 4L12 4L12 5L15 5L15 6L14 6L14 7L15 7L15 6L16 6L16 8L15 8L15 9L14 9L14 8L13 8L13 6L12 6L12 9L14 9L14 10L15 10L15 11L14 11L14 12L13 12L13 13L12 13L12 11L13 11L13 10L11 10L11 11L10 11L10 9L11 9L11 8L6 8L6 9L7 9L7 10L6 10L6 11L7 11L7 10L9 10L9 14L11 14L11 13L12 13L12 14L14 14L14 16L13 16L13 15L12 15L12 17L14 17L14 19L16 19L16 20L15 20L15 21L17 21L17 19L18 19L18 20L19 20L19 18L20 18L20 21L18 21L18 22L19 22L19 23L18 23L18 24L17 24L17 22L15 22L15 23L16 23L16 24L13 24L13 23L14 23L14 22L13 22L13 21L14 21L14 20L13 20L13 21L12 21L12 19L13 19L13 18L11 18L11 17L7 17L7 16L9 16L9 15L7 15L7 14L6 14L6 15L5 15L5 14L4 14L4 12L5 12L5 13L8 13L8 12L5 12L5 8L0 8L0 10L3 10L3 11L4 11L4 12L3 12L3 13L2 13L2 14L1 14L1 15L0 15L0 21L1 21L1 15L2 15L2 19L3 19L3 18L4 18L4 19L5 19L5 18L4 18L4 17L5 17L5 16L6 16L6 17L7 17L7 18L6 18L6 19L7 19L7 20L6 20L6 21L7 21L7 20L8 20L8 19L9 19L9 21L8 21L8 23L9 23L9 24L8 24L8 29L9 29L9 24L10 24L10 22L11 22L11 21L12 21L12 22L13 22L13 23L12 23L12 25L13 25L13 26L11 26L11 28L10 28L10 29L13 29L13 28L12 28L12 27L13 27L13 26L14 26L14 28L15 28L15 29L20 29L20 28L21 28L21 25L25 25L25 26L24 26L24 28L23 28L23 27L22 27L22 29L24 29L24 28L25 28L25 27L27 27L27 28L26 28L26 29L27 29L27 28L28 28L28 26L29 26L29 23L28 23L28 24L25 24L25 22L26 22L26 23L27 23L27 22L26 22L26 21L28 21L28 22L29 22L29 19L28 19L28 18L29 18L29 17L28 17L28 16L29 16L29 15L27 15L27 14L29 14L29 12L26 12L26 13L27 13L27 14L26 14L26 15L27 15L27 16L25 16L25 17L22 17L22 18L21 18L21 17L20 17L20 16L21 16L21 14L23 14L23 16L24 16L24 14L25 14L25 13L24 13L24 12L25 12L25 11L24 11L24 12L23 12L23 13L17 13L17 12L16 12L16 11L18 11L18 12L20 12L20 11L19 11L19 10L26 10L26 8L25 8L25 9L24 9L24 8L23 8L23 9L22 9L22 8L21 8L21 3L20 3L20 2L19 2L19 1L20 1L20 0L18 0L18 1L15 1L15 0L14 0L14 1L11 1L11 2L10 2L10 0ZM14 1L14 2L12 2L12 4L13 4L13 3L14 3L14 4L15 4L15 5L17 5L17 4L15 4L15 3L14 3L14 2L15 2L15 1ZM17 2L17 3L18 3L18 2ZM10 3L10 4L11 4L11 3ZM19 3L19 4L18 4L18 5L19 5L19 9L21 9L21 8L20 8L20 5L19 5L19 4L20 4L20 3ZM8 5L8 7L9 7L9 5ZM17 6L17 8L18 8L18 6ZM27 8L27 10L29 10L29 9L28 9L28 8ZM15 9L15 10L18 10L18 9ZM21 11L21 12L22 12L22 11ZM0 12L0 13L1 13L1 12ZM10 12L10 13L11 13L11 12ZM14 12L14 14L16 14L16 15L17 15L17 17L15 17L15 16L14 16L14 17L15 17L15 18L16 18L16 19L17 19L17 18L19 18L19 16L20 16L20 14L18 14L18 15L17 15L17 13L15 13L15 12ZM2 14L2 15L3 15L3 17L4 17L4 16L5 16L5 15L4 15L4 14ZM6 15L6 16L7 16L7 15ZM25 17L25 18L22 18L22 19L23 19L23 20L24 20L24 19L25 19L25 20L28 20L28 19L26 19L26 17ZM7 18L7 19L8 19L8 18ZM10 18L10 21L9 21L9 22L10 22L10 21L11 21L11 18ZM3 20L3 21L5 21L5 20ZM21 21L21 24L24 24L24 21ZM22 22L22 23L23 23L23 22ZM19 24L19 26L17 26L17 25L15 25L15 26L17 26L17 27L16 27L16 28L20 28L20 27L19 27L19 26L20 26L20 24ZM26 25L26 26L27 26L27 25ZM0 0L0 7L7 7L7 0ZM1 1L1 6L6 6L6 1ZM2 2L2 5L5 5L5 2ZM22 0L22 7L29 7L29 0ZM23 1L23 6L28 6L28 1ZM24 2L24 5L27 5L27 2ZM0 22L0 29L7 29L7 22ZM1 23L1 28L6 28L6 23ZM2 24L2 27L5 27L5 24Z" fill="#000000"/></g></g></svg>
